<mxfile host="Electron" modified="2024-03-15T15:54:46.542Z" agent="Mozilla/5.0 (Windows NT 10.0; Win64; x64) AppleWebKit/537.36 (KHTML, like Gecko) draw.io/24.0.4 Chrome/120.0.6099.109 Electron/28.1.0 Safari/537.36" etag="rHUBSFcH4oG6gEE8o34I" version="24.0.4" type="device">
  <diagram name="Pagina-1" id="9Hx1glb1ToDueiiUKnTw">
    <mxGraphModel dx="1753" dy="560" grid="1" gridSize="10" guides="1" tooltips="1" connect="1" arrows="1" fold="1" page="1" pageScale="1" pageWidth="827" pageHeight="1169" math="0" shadow="0">
      <root>
        <mxCell id="0" />
        <mxCell id="1" parent="0" />
        <mxCell id="cAMy2VFUhsjF8e3s1Db9-136" style="edgeStyle=orthogonalEdgeStyle;rounded=0;orthogonalLoop=1;jettySize=auto;html=1;exitX=1;exitY=0.5;exitDx=0;exitDy=0;entryX=0;entryY=0.5;entryDx=0;entryDy=0;" edge="1" parent="1" source="V3y4Ga6J6K1e8zJIfFwg-3" target="cAMy2VFUhsjF8e3s1Db9-5">
          <mxGeometry relative="1" as="geometry" />
        </mxCell>
        <mxCell id="cAMy2VFUhsjF8e3s1Db9-137" style="edgeStyle=orthogonalEdgeStyle;rounded=0;orthogonalLoop=1;jettySize=auto;html=1;exitX=1;exitY=0.5;exitDx=0;exitDy=0;entryX=0;entryY=0.5;entryDx=0;entryDy=0;" edge="1" parent="1" source="V3y4Ga6J6K1e8zJIfFwg-3" target="cAMy2VFUhsjF8e3s1Db9-4">
          <mxGeometry relative="1" as="geometry" />
        </mxCell>
        <mxCell id="cAMy2VFUhsjF8e3s1Db9-138" style="edgeStyle=orthogonalEdgeStyle;rounded=0;orthogonalLoop=1;jettySize=auto;html=1;exitX=1;exitY=0.5;exitDx=0;exitDy=0;entryX=0;entryY=0.5;entryDx=0;entryDy=0;" edge="1" parent="1" source="V3y4Ga6J6K1e8zJIfFwg-3" target="cAMy2VFUhsjF8e3s1Db9-6">
          <mxGeometry relative="1" as="geometry" />
        </mxCell>
        <mxCell id="cAMy2VFUhsjF8e3s1Db9-139" style="edgeStyle=orthogonalEdgeStyle;rounded=0;orthogonalLoop=1;jettySize=auto;html=1;exitX=1;exitY=0.5;exitDx=0;exitDy=0;entryX=0;entryY=0.5;entryDx=0;entryDy=0;" edge="1" parent="1" source="V3y4Ga6J6K1e8zJIfFwg-3" target="cAMy2VFUhsjF8e3s1Db9-48">
          <mxGeometry relative="1" as="geometry" />
        </mxCell>
        <mxCell id="cAMy2VFUhsjF8e3s1Db9-164" style="edgeStyle=orthogonalEdgeStyle;rounded=0;orthogonalLoop=1;jettySize=auto;html=1;entryX=0.5;entryY=1;entryDx=0;entryDy=0;endArrow=doubleBlock;endFill=1;" edge="1" parent="1" source="V3y4Ga6J6K1e8zJIfFwg-3" target="cAMy2VFUhsjF8e3s1Db9-150">
          <mxGeometry relative="1" as="geometry" />
        </mxCell>
        <mxCell id="cAMy2VFUhsjF8e3s1Db9-167" style="edgeStyle=orthogonalEdgeStyle;rounded=0;orthogonalLoop=1;jettySize=auto;html=1;entryX=0.5;entryY=0;entryDx=0;entryDy=0;endArrow=doubleBlock;endFill=1;" edge="1" parent="1" source="V3y4Ga6J6K1e8zJIfFwg-3" target="cAMy2VFUhsjF8e3s1Db9-151">
          <mxGeometry relative="1" as="geometry" />
        </mxCell>
        <mxCell id="V3y4Ga6J6K1e8zJIfFwg-3" value="Customer" style="rounded=0;whiteSpace=wrap;html=1;" parent="1" vertex="1">
          <mxGeometry x="681.25" y="660" width="120" height="60" as="geometry" />
        </mxCell>
        <mxCell id="cAMy2VFUhsjF8e3s1Db9-4" value="" style="ellipse;whiteSpace=wrap;html=1;aspect=fixed;" vertex="1" parent="1">
          <mxGeometry x="851.5" y="725" width="20" height="20" as="geometry" />
        </mxCell>
        <mxCell id="cAMy2VFUhsjF8e3s1Db9-5" value="" style="ellipse;whiteSpace=wrap;html=1;aspect=fixed;" vertex="1" parent="1">
          <mxGeometry x="851.5" y="695" width="20" height="20" as="geometry" />
        </mxCell>
        <mxCell id="cAMy2VFUhsjF8e3s1Db9-6" value="" style="ellipse;whiteSpace=wrap;html=1;aspect=fixed;" vertex="1" parent="1">
          <mxGeometry x="851.5" y="755" width="20" height="20" as="geometry" />
        </mxCell>
        <mxCell id="cAMy2VFUhsjF8e3s1Db9-117" style="edgeStyle=orthogonalEdgeStyle;rounded=0;orthogonalLoop=1;jettySize=auto;html=1;entryX=0.5;entryY=1;entryDx=0;entryDy=0;" edge="1" parent="1" source="cAMy2VFUhsjF8e3s1Db9-19" target="cAMy2VFUhsjF8e3s1Db9-110">
          <mxGeometry relative="1" as="geometry" />
        </mxCell>
        <mxCell id="cAMy2VFUhsjF8e3s1Db9-128" style="edgeStyle=orthogonalEdgeStyle;rounded=0;orthogonalLoop=1;jettySize=auto;html=1;exitX=0.75;exitY=1;exitDx=0;exitDy=0;entryX=0;entryY=0.5;entryDx=0;entryDy=0;" edge="1" parent="1" source="cAMy2VFUhsjF8e3s1Db9-19" target="cAMy2VFUhsjF8e3s1Db9-21">
          <mxGeometry relative="1" as="geometry" />
        </mxCell>
        <mxCell id="cAMy2VFUhsjF8e3s1Db9-129" style="edgeStyle=orthogonalEdgeStyle;rounded=0;orthogonalLoop=1;jettySize=auto;html=1;exitX=0.75;exitY=1;exitDx=0;exitDy=0;entryX=0;entryY=0.5;entryDx=0;entryDy=0;" edge="1" parent="1" source="cAMy2VFUhsjF8e3s1Db9-19" target="cAMy2VFUhsjF8e3s1Db9-20">
          <mxGeometry relative="1" as="geometry" />
        </mxCell>
        <mxCell id="cAMy2VFUhsjF8e3s1Db9-130" style="edgeStyle=orthogonalEdgeStyle;rounded=0;orthogonalLoop=1;jettySize=auto;html=1;entryX=0.5;entryY=0;entryDx=0;entryDy=0;" edge="1" parent="1" source="cAMy2VFUhsjF8e3s1Db9-19" target="cAMy2VFUhsjF8e3s1Db9-118">
          <mxGeometry relative="1" as="geometry" />
        </mxCell>
        <mxCell id="cAMy2VFUhsjF8e3s1Db9-146" style="edgeStyle=orthogonalEdgeStyle;rounded=0;orthogonalLoop=1;jettySize=auto;html=1;entryX=0;entryY=0.5;entryDx=0;entryDy=0;endArrow=doubleBlock;endFill=1;" edge="1" parent="1" source="cAMy2VFUhsjF8e3s1Db9-19" target="cAMy2VFUhsjF8e3s1Db9-145">
          <mxGeometry relative="1" as="geometry" />
        </mxCell>
        <mxCell id="cAMy2VFUhsjF8e3s1Db9-19" value="Showtime" style="rounded=0;whiteSpace=wrap;html=1;" vertex="1" parent="1">
          <mxGeometry x="242" y="490" width="120" height="60" as="geometry" />
        </mxCell>
        <mxCell id="cAMy2VFUhsjF8e3s1Db9-20" value="" style="ellipse;whiteSpace=wrap;html=1;aspect=fixed;" vertex="1" parent="1">
          <mxGeometry x="388.5" y="620" width="20" height="20" as="geometry" />
        </mxCell>
        <mxCell id="cAMy2VFUhsjF8e3s1Db9-21" value="" style="ellipse;whiteSpace=wrap;html=1;aspect=fixed;" vertex="1" parent="1">
          <mxGeometry x="388.5" y="590" width="20" height="20" as="geometry" />
        </mxCell>
        <mxCell id="cAMy2VFUhsjF8e3s1Db9-104" style="edgeStyle=orthogonalEdgeStyle;rounded=0;orthogonalLoop=1;jettySize=auto;html=1;entryX=1;entryY=0.5;entryDx=0;entryDy=0;" edge="1" parent="1" source="cAMy2VFUhsjF8e3s1Db9-26" target="cAMy2VFUhsjF8e3s1Db9-101">
          <mxGeometry relative="1" as="geometry" />
        </mxCell>
        <mxCell id="cAMy2VFUhsjF8e3s1Db9-111" style="edgeStyle=orthogonalEdgeStyle;rounded=0;orthogonalLoop=1;jettySize=auto;html=1;exitX=0.75;exitY=1;exitDx=0;exitDy=0;entryX=0;entryY=0.5;entryDx=0;entryDy=0;" edge="1" parent="1" source="cAMy2VFUhsjF8e3s1Db9-26" target="cAMy2VFUhsjF8e3s1Db9-28">
          <mxGeometry relative="1" as="geometry" />
        </mxCell>
        <mxCell id="cAMy2VFUhsjF8e3s1Db9-112" style="edgeStyle=orthogonalEdgeStyle;rounded=0;orthogonalLoop=1;jettySize=auto;html=1;exitX=0.75;exitY=1;exitDx=0;exitDy=0;entryX=0;entryY=0.5;entryDx=0;entryDy=0;" edge="1" parent="1" source="cAMy2VFUhsjF8e3s1Db9-26" target="cAMy2VFUhsjF8e3s1Db9-27">
          <mxGeometry relative="1" as="geometry" />
        </mxCell>
        <mxCell id="cAMy2VFUhsjF8e3s1Db9-113" style="edgeStyle=orthogonalEdgeStyle;rounded=0;orthogonalLoop=1;jettySize=auto;html=1;exitX=0.75;exitY=1;exitDx=0;exitDy=0;entryX=0;entryY=0.5;entryDx=0;entryDy=0;" edge="1" parent="1" source="cAMy2VFUhsjF8e3s1Db9-26" target="cAMy2VFUhsjF8e3s1Db9-29">
          <mxGeometry relative="1" as="geometry" />
        </mxCell>
        <mxCell id="cAMy2VFUhsjF8e3s1Db9-115" style="edgeStyle=orthogonalEdgeStyle;rounded=0;orthogonalLoop=1;jettySize=auto;html=1;entryX=0.5;entryY=0;entryDx=0;entryDy=0;endArrow=doubleBlock;endFill=1;" edge="1" parent="1" source="cAMy2VFUhsjF8e3s1Db9-26" target="cAMy2VFUhsjF8e3s1Db9-110">
          <mxGeometry relative="1" as="geometry" />
        </mxCell>
        <mxCell id="cAMy2VFUhsjF8e3s1Db9-26" value="Theater" style="rounded=0;whiteSpace=wrap;html=1;" vertex="1" parent="1">
          <mxGeometry x="242" y="130" width="120" height="60" as="geometry" />
        </mxCell>
        <mxCell id="cAMy2VFUhsjF8e3s1Db9-27" value="" style="ellipse;whiteSpace=wrap;html=1;aspect=fixed;" vertex="1" parent="1">
          <mxGeometry x="389.5" y="240" width="20" height="20" as="geometry" />
        </mxCell>
        <mxCell id="cAMy2VFUhsjF8e3s1Db9-28" value="" style="ellipse;whiteSpace=wrap;html=1;aspect=fixed;" vertex="1" parent="1">
          <mxGeometry x="389.5" y="210" width="20" height="20" as="geometry" />
        </mxCell>
        <mxCell id="cAMy2VFUhsjF8e3s1Db9-29" value="" style="ellipse;whiteSpace=wrap;html=1;aspect=fixed;" vertex="1" parent="1">
          <mxGeometry x="389.5" y="270" width="20" height="20" as="geometry" />
        </mxCell>
        <mxCell id="cAMy2VFUhsjF8e3s1Db9-30" style="edgeStyle=orthogonalEdgeStyle;rounded=0;orthogonalLoop=1;jettySize=auto;html=1;entryX=0;entryY=0.5;entryDx=0;entryDy=0;" edge="1" parent="1" source="cAMy2VFUhsjF8e3s1Db9-33" target="cAMy2VFUhsjF8e3s1Db9-35">
          <mxGeometry relative="1" as="geometry" />
        </mxCell>
        <mxCell id="cAMy2VFUhsjF8e3s1Db9-31" style="edgeStyle=orthogonalEdgeStyle;rounded=0;orthogonalLoop=1;jettySize=auto;html=1;entryX=0;entryY=0.5;entryDx=0;entryDy=0;" edge="1" parent="1" source="cAMy2VFUhsjF8e3s1Db9-33" target="cAMy2VFUhsjF8e3s1Db9-34">
          <mxGeometry relative="1" as="geometry" />
        </mxCell>
        <mxCell id="cAMy2VFUhsjF8e3s1Db9-32" style="edgeStyle=orthogonalEdgeStyle;rounded=0;orthogonalLoop=1;jettySize=auto;html=1;entryX=0;entryY=0.5;entryDx=0;entryDy=0;" edge="1" parent="1" source="cAMy2VFUhsjF8e3s1Db9-33" target="cAMy2VFUhsjF8e3s1Db9-36">
          <mxGeometry relative="1" as="geometry" />
        </mxCell>
        <mxCell id="cAMy2VFUhsjF8e3s1Db9-103" style="edgeStyle=orthogonalEdgeStyle;rounded=0;orthogonalLoop=1;jettySize=auto;html=1;entryX=0;entryY=0.5;entryDx=0;entryDy=0;endArrow=doubleBlock;endFill=1;" edge="1" parent="1" source="cAMy2VFUhsjF8e3s1Db9-33" target="cAMy2VFUhsjF8e3s1Db9-101">
          <mxGeometry relative="1" as="geometry" />
        </mxCell>
        <mxCell id="cAMy2VFUhsjF8e3s1Db9-108" style="edgeStyle=orthogonalEdgeStyle;rounded=0;orthogonalLoop=1;jettySize=auto;html=1;entryX=1;entryY=0.5;entryDx=0;entryDy=0;endArrow=doubleBlock;endFill=1;" edge="1" parent="1" source="cAMy2VFUhsjF8e3s1Db9-33" target="cAMy2VFUhsjF8e3s1Db9-106">
          <mxGeometry relative="1" as="geometry" />
        </mxCell>
        <mxCell id="cAMy2VFUhsjF8e3s1Db9-33" value="Cinema" style="rounded=0;whiteSpace=wrap;html=1;" vertex="1" parent="1">
          <mxGeometry x="-203.5" y="130" width="120" height="60" as="geometry" />
        </mxCell>
        <mxCell id="cAMy2VFUhsjF8e3s1Db9-34" value="" style="ellipse;whiteSpace=wrap;html=1;aspect=fixed;" vertex="1" parent="1">
          <mxGeometry x="-109.5" y="240" width="20" height="20" as="geometry" />
        </mxCell>
        <mxCell id="cAMy2VFUhsjF8e3s1Db9-35" value="" style="ellipse;whiteSpace=wrap;html=1;aspect=fixed;" vertex="1" parent="1">
          <mxGeometry x="-109.5" y="210" width="20" height="20" as="geometry" />
        </mxCell>
        <mxCell id="cAMy2VFUhsjF8e3s1Db9-36" value="" style="ellipse;whiteSpace=wrap;html=1;aspect=fixed;" vertex="1" parent="1">
          <mxGeometry x="-109.5" y="270" width="20" height="20" as="geometry" />
        </mxCell>
        <mxCell id="cAMy2VFUhsjF8e3s1Db9-37" style="edgeStyle=orthogonalEdgeStyle;rounded=0;orthogonalLoop=1;jettySize=auto;html=1;entryX=0;entryY=0.5;entryDx=0;entryDy=0;" edge="1" parent="1" source="cAMy2VFUhsjF8e3s1Db9-40" target="cAMy2VFUhsjF8e3s1Db9-42">
          <mxGeometry relative="1" as="geometry" />
        </mxCell>
        <mxCell id="cAMy2VFUhsjF8e3s1Db9-38" style="edgeStyle=orthogonalEdgeStyle;rounded=0;orthogonalLoop=1;jettySize=auto;html=1;entryX=0;entryY=0.5;entryDx=0;entryDy=0;" edge="1" parent="1" source="cAMy2VFUhsjF8e3s1Db9-40" target="cAMy2VFUhsjF8e3s1Db9-41">
          <mxGeometry relative="1" as="geometry" />
        </mxCell>
        <mxCell id="cAMy2VFUhsjF8e3s1Db9-39" style="edgeStyle=orthogonalEdgeStyle;rounded=0;orthogonalLoop=1;jettySize=auto;html=1;entryX=0;entryY=0.5;entryDx=0;entryDy=0;" edge="1" parent="1" source="cAMy2VFUhsjF8e3s1Db9-40" target="cAMy2VFUhsjF8e3s1Db9-43">
          <mxGeometry relative="1" as="geometry" />
        </mxCell>
        <mxCell id="cAMy2VFUhsjF8e3s1Db9-46" style="edgeStyle=orthogonalEdgeStyle;rounded=0;orthogonalLoop=1;jettySize=auto;html=1;entryX=0;entryY=0.5;entryDx=0;entryDy=0;" edge="1" parent="1" source="cAMy2VFUhsjF8e3s1Db9-40" target="cAMy2VFUhsjF8e3s1Db9-44">
          <mxGeometry relative="1" as="geometry" />
        </mxCell>
        <mxCell id="cAMy2VFUhsjF8e3s1Db9-47" style="edgeStyle=orthogonalEdgeStyle;rounded=0;orthogonalLoop=1;jettySize=auto;html=1;entryX=0;entryY=0.5;entryDx=0;entryDy=0;" edge="1" parent="1" source="cAMy2VFUhsjF8e3s1Db9-40" target="cAMy2VFUhsjF8e3s1Db9-45">
          <mxGeometry relative="1" as="geometry" />
        </mxCell>
        <mxCell id="cAMy2VFUhsjF8e3s1Db9-131" style="edgeStyle=orthogonalEdgeStyle;rounded=0;orthogonalLoop=1;jettySize=auto;html=1;entryX=0.5;entryY=1;entryDx=0;entryDy=0;endArrow=doubleBlock;endFill=1;" edge="1" parent="1" source="cAMy2VFUhsjF8e3s1Db9-40" target="cAMy2VFUhsjF8e3s1Db9-118">
          <mxGeometry relative="1" as="geometry" />
        </mxCell>
        <mxCell id="cAMy2VFUhsjF8e3s1Db9-148" style="edgeStyle=orthogonalEdgeStyle;rounded=0;orthogonalLoop=1;jettySize=auto;html=1;entryX=0;entryY=0.5;entryDx=0;entryDy=0;endArrow=doubleBlock;endFill=1;" edge="1" parent="1" source="cAMy2VFUhsjF8e3s1Db9-40" target="cAMy2VFUhsjF8e3s1Db9-132">
          <mxGeometry relative="1" as="geometry" />
        </mxCell>
        <mxCell id="cAMy2VFUhsjF8e3s1Db9-40" value="Movie" style="rounded=0;whiteSpace=wrap;html=1;" vertex="1" parent="1">
          <mxGeometry x="242" y="850" width="120" height="60" as="geometry" />
        </mxCell>
        <mxCell id="cAMy2VFUhsjF8e3s1Db9-41" value="" style="ellipse;whiteSpace=wrap;html=1;aspect=fixed;" vertex="1" parent="1">
          <mxGeometry x="336" y="960" width="20" height="20" as="geometry" />
        </mxCell>
        <mxCell id="cAMy2VFUhsjF8e3s1Db9-42" value="" style="ellipse;whiteSpace=wrap;html=1;aspect=fixed;" vertex="1" parent="1">
          <mxGeometry x="336" y="930" width="20" height="20" as="geometry" />
        </mxCell>
        <mxCell id="cAMy2VFUhsjF8e3s1Db9-43" value="" style="ellipse;whiteSpace=wrap;html=1;aspect=fixed;" vertex="1" parent="1">
          <mxGeometry x="336" y="990" width="20" height="20" as="geometry" />
        </mxCell>
        <mxCell id="cAMy2VFUhsjF8e3s1Db9-44" value="" style="ellipse;whiteSpace=wrap;html=1;aspect=fixed;" vertex="1" parent="1">
          <mxGeometry x="336" y="1020" width="20" height="20" as="geometry" />
        </mxCell>
        <mxCell id="cAMy2VFUhsjF8e3s1Db9-45" value="" style="ellipse;whiteSpace=wrap;html=1;aspect=fixed;" vertex="1" parent="1">
          <mxGeometry x="336" y="1050" width="20" height="20" as="geometry" />
        </mxCell>
        <mxCell id="cAMy2VFUhsjF8e3s1Db9-48" value="" style="ellipse;whiteSpace=wrap;html=1;aspect=fixed;" vertex="1" parent="1">
          <mxGeometry x="851.5" y="785" width="20" height="20" as="geometry" />
        </mxCell>
        <mxCell id="cAMy2VFUhsjF8e3s1Db9-156" style="edgeStyle=orthogonalEdgeStyle;rounded=0;orthogonalLoop=1;jettySize=auto;html=1;exitX=0.75;exitY=1;exitDx=0;exitDy=0;entryX=0;entryY=0.5;entryDx=0;entryDy=0;" edge="1" parent="1" source="cAMy2VFUhsjF8e3s1Db9-53" target="cAMy2VFUhsjF8e3s1Db9-55">
          <mxGeometry relative="1" as="geometry" />
        </mxCell>
        <mxCell id="cAMy2VFUhsjF8e3s1Db9-157" style="edgeStyle=orthogonalEdgeStyle;rounded=0;orthogonalLoop=1;jettySize=auto;html=1;exitX=0.75;exitY=1;exitDx=0;exitDy=0;entryX=0;entryY=0.5;entryDx=0;entryDy=0;" edge="1" parent="1" source="cAMy2VFUhsjF8e3s1Db9-53" target="cAMy2VFUhsjF8e3s1Db9-54">
          <mxGeometry relative="1" as="geometry" />
        </mxCell>
        <mxCell id="cAMy2VFUhsjF8e3s1Db9-163" style="edgeStyle=orthogonalEdgeStyle;rounded=0;orthogonalLoop=1;jettySize=auto;html=1;entryX=0.5;entryY=0;entryDx=0;entryDy=0;" edge="1" parent="1" source="cAMy2VFUhsjF8e3s1Db9-53" target="cAMy2VFUhsjF8e3s1Db9-150">
          <mxGeometry relative="1" as="geometry" />
        </mxCell>
        <mxCell id="cAMy2VFUhsjF8e3s1Db9-165" style="edgeStyle=orthogonalEdgeStyle;rounded=0;orthogonalLoop=1;jettySize=auto;html=1;entryX=1;entryY=0.5;entryDx=0;entryDy=0;" edge="1" parent="1" source="cAMy2VFUhsjF8e3s1Db9-53" target="cAMy2VFUhsjF8e3s1Db9-145">
          <mxGeometry relative="1" as="geometry" />
        </mxCell>
        <mxCell id="cAMy2VFUhsjF8e3s1Db9-53" value="Ticket" style="rounded=0;whiteSpace=wrap;html=1;" vertex="1" parent="1">
          <mxGeometry x="681.25" y="350" width="120" height="60" as="geometry" />
        </mxCell>
        <mxCell id="cAMy2VFUhsjF8e3s1Db9-54" value="" style="ellipse;whiteSpace=wrap;html=1;aspect=fixed;" vertex="1" parent="1">
          <mxGeometry x="820.5" y="455" width="20" height="20" as="geometry" />
        </mxCell>
        <mxCell id="cAMy2VFUhsjF8e3s1Db9-55" value="" style="ellipse;whiteSpace=wrap;html=1;aspect=fixed;" vertex="1" parent="1">
          <mxGeometry x="820.5" y="425" width="20" height="20" as="geometry" />
        </mxCell>
        <mxCell id="cAMy2VFUhsjF8e3s1Db9-57" style="edgeStyle=orthogonalEdgeStyle;rounded=0;orthogonalLoop=1;jettySize=auto;html=1;entryX=0;entryY=0.5;entryDx=0;entryDy=0;" edge="1" parent="1" source="cAMy2VFUhsjF8e3s1Db9-60" target="cAMy2VFUhsjF8e3s1Db9-62">
          <mxGeometry relative="1" as="geometry" />
        </mxCell>
        <mxCell id="cAMy2VFUhsjF8e3s1Db9-58" style="edgeStyle=orthogonalEdgeStyle;rounded=0;orthogonalLoop=1;jettySize=auto;html=1;entryX=0;entryY=0.5;entryDx=0;entryDy=0;" edge="1" parent="1" source="cAMy2VFUhsjF8e3s1Db9-60" target="cAMy2VFUhsjF8e3s1Db9-61">
          <mxGeometry relative="1" as="geometry" />
        </mxCell>
        <mxCell id="cAMy2VFUhsjF8e3s1Db9-59" style="edgeStyle=orthogonalEdgeStyle;rounded=0;orthogonalLoop=1;jettySize=auto;html=1;entryX=0;entryY=0.5;entryDx=0;entryDy=0;" edge="1" parent="1" source="cAMy2VFUhsjF8e3s1Db9-60" target="cAMy2VFUhsjF8e3s1Db9-63">
          <mxGeometry relative="1" as="geometry" />
        </mxCell>
        <mxCell id="cAMy2VFUhsjF8e3s1Db9-149" style="edgeStyle=orthogonalEdgeStyle;rounded=0;orthogonalLoop=1;jettySize=auto;html=1;entryX=1;entryY=0.5;entryDx=0;entryDy=0;" edge="1" parent="1" source="cAMy2VFUhsjF8e3s1Db9-60" target="cAMy2VFUhsjF8e3s1Db9-132">
          <mxGeometry relative="1" as="geometry" />
        </mxCell>
        <mxCell id="cAMy2VFUhsjF8e3s1Db9-153" style="edgeStyle=orthogonalEdgeStyle;rounded=0;orthogonalLoop=1;jettySize=auto;html=1;entryX=0.5;entryY=1;entryDx=0;entryDy=0;" edge="1" parent="1" source="cAMy2VFUhsjF8e3s1Db9-60" target="cAMy2VFUhsjF8e3s1Db9-151">
          <mxGeometry relative="1" as="geometry" />
        </mxCell>
        <mxCell id="cAMy2VFUhsjF8e3s1Db9-60" value="Review" style="rounded=0;whiteSpace=wrap;html=1;" vertex="1" parent="1">
          <mxGeometry x="681.25" y="990" width="120" height="60" as="geometry" />
        </mxCell>
        <mxCell id="cAMy2VFUhsjF8e3s1Db9-61" value="" style="ellipse;whiteSpace=wrap;html=1;aspect=fixed;" vertex="1" parent="1">
          <mxGeometry x="775.25" y="1100" width="20" height="20" as="geometry" />
        </mxCell>
        <mxCell id="cAMy2VFUhsjF8e3s1Db9-62" value="" style="ellipse;whiteSpace=wrap;html=1;aspect=fixed;" vertex="1" parent="1">
          <mxGeometry x="775.25" y="1070" width="20" height="20" as="geometry" />
        </mxCell>
        <mxCell id="cAMy2VFUhsjF8e3s1Db9-63" value="" style="ellipse;whiteSpace=wrap;html=1;aspect=fixed;" vertex="1" parent="1">
          <mxGeometry x="775.25" y="1130" width="20" height="20" as="geometry" />
        </mxCell>
        <mxCell id="cAMy2VFUhsjF8e3s1Db9-64" style="edgeStyle=orthogonalEdgeStyle;rounded=0;orthogonalLoop=1;jettySize=auto;html=1;entryX=0;entryY=0.5;entryDx=0;entryDy=0;" edge="1" parent="1" source="cAMy2VFUhsjF8e3s1Db9-68" target="cAMy2VFUhsjF8e3s1Db9-70">
          <mxGeometry relative="1" as="geometry" />
        </mxCell>
        <mxCell id="cAMy2VFUhsjF8e3s1Db9-65" style="edgeStyle=orthogonalEdgeStyle;rounded=0;orthogonalLoop=1;jettySize=auto;html=1;entryX=0;entryY=0.5;entryDx=0;entryDy=0;" edge="1" parent="1" source="cAMy2VFUhsjF8e3s1Db9-68" target="cAMy2VFUhsjF8e3s1Db9-69">
          <mxGeometry relative="1" as="geometry" />
        </mxCell>
        <mxCell id="cAMy2VFUhsjF8e3s1Db9-66" style="edgeStyle=orthogonalEdgeStyle;rounded=0;orthogonalLoop=1;jettySize=auto;html=1;entryX=0;entryY=0.5;entryDx=0;entryDy=0;" edge="1" parent="1" source="cAMy2VFUhsjF8e3s1Db9-68" target="cAMy2VFUhsjF8e3s1Db9-71">
          <mxGeometry relative="1" as="geometry" />
        </mxCell>
        <mxCell id="cAMy2VFUhsjF8e3s1Db9-67" style="edgeStyle=orthogonalEdgeStyle;rounded=0;orthogonalLoop=1;jettySize=auto;html=1;entryX=0;entryY=0.5;entryDx=0;entryDy=0;" edge="1" parent="1" source="cAMy2VFUhsjF8e3s1Db9-68" target="cAMy2VFUhsjF8e3s1Db9-72">
          <mxGeometry relative="1" as="geometry" />
        </mxCell>
        <mxCell id="cAMy2VFUhsjF8e3s1Db9-107" style="edgeStyle=orthogonalEdgeStyle;rounded=0;orthogonalLoop=1;jettySize=auto;html=1;entryX=0;entryY=0.5;entryDx=0;entryDy=0;" edge="1" parent="1" source="cAMy2VFUhsjF8e3s1Db9-68" target="cAMy2VFUhsjF8e3s1Db9-106">
          <mxGeometry relative="1" as="geometry" />
        </mxCell>
        <mxCell id="cAMy2VFUhsjF8e3s1Db9-68" value="Employee" style="rounded=0;whiteSpace=wrap;html=1;" vertex="1" parent="1">
          <mxGeometry x="-602" y="130" width="120" height="60" as="geometry" />
        </mxCell>
        <mxCell id="cAMy2VFUhsjF8e3s1Db9-69" value="" style="ellipse;whiteSpace=wrap;html=1;aspect=fixed;" vertex="1" parent="1">
          <mxGeometry x="-508" y="240" width="20" height="20" as="geometry" />
        </mxCell>
        <mxCell id="cAMy2VFUhsjF8e3s1Db9-70" value="" style="ellipse;whiteSpace=wrap;html=1;aspect=fixed;" vertex="1" parent="1">
          <mxGeometry x="-508" y="210" width="20" height="20" as="geometry" />
        </mxCell>
        <mxCell id="cAMy2VFUhsjF8e3s1Db9-71" value="" style="ellipse;whiteSpace=wrap;html=1;aspect=fixed;" vertex="1" parent="1">
          <mxGeometry x="-508" y="270" width="20" height="20" as="geometry" />
        </mxCell>
        <mxCell id="cAMy2VFUhsjF8e3s1Db9-72" value="" style="ellipse;whiteSpace=wrap;html=1;aspect=fixed;" vertex="1" parent="1">
          <mxGeometry x="-508" y="300" width="20" height="20" as="geometry" />
        </mxCell>
        <mxCell id="cAMy2VFUhsjF8e3s1Db9-73" value="Name" style="text;html=1;align=center;verticalAlign=middle;resizable=0;points=[];autosize=1;strokeColor=none;fillColor=none;" vertex="1" parent="1">
          <mxGeometry x="-98.5" y="205" width="60" height="30" as="geometry" />
        </mxCell>
        <mxCell id="cAMy2VFUhsjF8e3s1Db9-74" value="Address" style="text;html=1;align=center;verticalAlign=middle;resizable=0;points=[];autosize=1;strokeColor=none;fillColor=none;" vertex="1" parent="1">
          <mxGeometry x="-98.5" y="235" width="70" height="30" as="geometry" />
        </mxCell>
        <mxCell id="cAMy2VFUhsjF8e3s1Db9-75" value="Phone" style="text;html=1;align=center;verticalAlign=middle;resizable=0;points=[];autosize=1;strokeColor=none;fillColor=none;" vertex="1" parent="1">
          <mxGeometry x="-98.5" y="265" width="60" height="30" as="geometry" />
        </mxCell>
        <mxCell id="cAMy2VFUhsjF8e3s1Db9-76" value="Name" style="text;html=1;align=center;verticalAlign=middle;resizable=0;points=[];autosize=1;strokeColor=none;fillColor=none;" vertex="1" parent="1">
          <mxGeometry x="400.5" y="205" width="60" height="30" as="geometry" />
        </mxCell>
        <mxCell id="cAMy2VFUhsjF8e3s1Db9-77" value="Capacity" style="text;html=1;align=center;verticalAlign=middle;resizable=0;points=[];autosize=1;strokeColor=none;fillColor=none;" vertex="1" parent="1">
          <mxGeometry x="404.5" y="235" width="70" height="30" as="geometry" />
        </mxCell>
        <mxCell id="cAMy2VFUhsjF8e3s1Db9-78" value="ScreenType" style="text;html=1;align=center;verticalAlign=middle;resizable=0;points=[];autosize=1;strokeColor=none;fillColor=none;" vertex="1" parent="1">
          <mxGeometry x="404" y="265" width="90" height="30" as="geometry" />
        </mxCell>
        <mxCell id="cAMy2VFUhsjF8e3s1Db9-79" value="Title" style="text;html=1;align=center;verticalAlign=middle;resizable=0;points=[];autosize=1;strokeColor=none;fillColor=none;" vertex="1" parent="1">
          <mxGeometry x="347" y="925" width="50" height="30" as="geometry" />
        </mxCell>
        <mxCell id="cAMy2VFUhsjF8e3s1Db9-80" value="Director" style="text;html=1;align=center;verticalAlign=middle;resizable=0;points=[];autosize=1;strokeColor=none;fillColor=none;" vertex="1" parent="1">
          <mxGeometry x="347" y="955" width="70" height="30" as="geometry" />
        </mxCell>
        <mxCell id="cAMy2VFUhsjF8e3s1Db9-81" value="ReleaseDate" style="text;html=1;align=center;verticalAlign=middle;resizable=0;points=[];autosize=1;strokeColor=none;fillColor=none;" vertex="1" parent="1">
          <mxGeometry x="347" y="985" width="90" height="30" as="geometry" />
        </mxCell>
        <mxCell id="cAMy2VFUhsjF8e3s1Db9-82" value="DurationMinutes" style="text;html=1;align=center;verticalAlign=middle;resizable=0;points=[];autosize=1;strokeColor=none;fillColor=none;" vertex="1" parent="1">
          <mxGeometry x="347" y="1015" width="110" height="30" as="geometry" />
        </mxCell>
        <mxCell id="cAMy2VFUhsjF8e3s1Db9-83" value="Ratings" style="text;html=1;align=center;verticalAlign=middle;resizable=0;points=[];autosize=1;strokeColor=none;fillColor=none;" vertex="1" parent="1">
          <mxGeometry x="352" y="1045" width="60" height="30" as="geometry" />
        </mxCell>
        <mxCell id="cAMy2VFUhsjF8e3s1Db9-84" value="Price" style="text;html=1;align=center;verticalAlign=middle;resizable=0;points=[];autosize=1;strokeColor=none;fillColor=none;" vertex="1" parent="1">
          <mxGeometry x="404.5" y="615" width="50" height="30" as="geometry" />
        </mxCell>
        <mxCell id="cAMy2VFUhsjF8e3s1Db9-85" value="ShowDateTime" style="text;html=1;align=center;verticalAlign=middle;resizable=0;points=[];autosize=1;strokeColor=none;fillColor=none;" vertex="1" parent="1">
          <mxGeometry x="399.5" y="585" width="110" height="30" as="geometry" />
        </mxCell>
        <mxCell id="cAMy2VFUhsjF8e3s1Db9-86" value="FirstName" style="text;html=1;align=center;verticalAlign=middle;resizable=0;points=[];autosize=1;strokeColor=none;fillColor=none;" vertex="1" parent="1">
          <mxGeometry x="866.5" y="690" width="80" height="30" as="geometry" />
        </mxCell>
        <mxCell id="cAMy2VFUhsjF8e3s1Db9-88" value="LastName" style="text;html=1;align=center;verticalAlign=middle;resizable=0;points=[];autosize=1;strokeColor=none;fillColor=none;" vertex="1" parent="1">
          <mxGeometry x="866.5" y="720" width="80" height="30" as="geometry" />
        </mxCell>
        <mxCell id="cAMy2VFUhsjF8e3s1Db9-89" value="Email" style="text;html=1;align=center;verticalAlign=middle;resizable=0;points=[];autosize=1;strokeColor=none;fillColor=none;" vertex="1" parent="1">
          <mxGeometry x="872.5" y="750" width="50" height="30" as="geometry" />
        </mxCell>
        <mxCell id="cAMy2VFUhsjF8e3s1Db9-90" value="PhoneNumber" style="text;html=1;align=center;verticalAlign=middle;resizable=0;points=[];autosize=1;strokeColor=none;fillColor=none;" vertex="1" parent="1">
          <mxGeometry x="866.5" y="780" width="100" height="30" as="geometry" />
        </mxCell>
        <mxCell id="cAMy2VFUhsjF8e3s1Db9-91" value="SeatNumber" style="text;html=1;align=center;verticalAlign=middle;resizable=0;points=[];autosize=1;strokeColor=none;fillColor=none;" vertex="1" parent="1">
          <mxGeometry x="836.5" y="420" width="90" height="30" as="geometry" />
        </mxCell>
        <mxCell id="cAMy2VFUhsjF8e3s1Db9-92" value="PurchasedDateTime" style="text;html=1;align=center;verticalAlign=middle;resizable=0;points=[];autosize=1;strokeColor=none;fillColor=none;" vertex="1" parent="1">
          <mxGeometry x="836.5" y="450" width="130" height="30" as="geometry" />
        </mxCell>
        <mxCell id="cAMy2VFUhsjF8e3s1Db9-93" value="ReviewText" style="text;html=1;align=center;verticalAlign=middle;resizable=0;points=[];autosize=1;strokeColor=none;fillColor=none;" vertex="1" parent="1">
          <mxGeometry x="795.25" y="1065" width="80" height="30" as="geometry" />
        </mxCell>
        <mxCell id="cAMy2VFUhsjF8e3s1Db9-95" value="Date" style="text;html=1;align=center;verticalAlign=middle;resizable=0;points=[];autosize=1;strokeColor=none;fillColor=none;" vertex="1" parent="1">
          <mxGeometry x="791.25" y="1095" width="50" height="30" as="geometry" />
        </mxCell>
        <mxCell id="cAMy2VFUhsjF8e3s1Db9-96" value="ReviewDate" style="text;html=1;align=center;verticalAlign=middle;resizable=0;points=[];autosize=1;strokeColor=none;fillColor=none;" vertex="1" parent="1">
          <mxGeometry x="790.25" y="1125" width="90" height="30" as="geometry" />
        </mxCell>
        <mxCell id="cAMy2VFUhsjF8e3s1Db9-97" value="FirstName" style="text;html=1;align=center;verticalAlign=middle;resizable=0;points=[];autosize=1;strokeColor=none;fillColor=none;" vertex="1" parent="1">
          <mxGeometry x="-493" y="205" width="80" height="30" as="geometry" />
        </mxCell>
        <mxCell id="cAMy2VFUhsjF8e3s1Db9-98" value="LastName" style="text;html=1;align=center;verticalAlign=middle;resizable=0;points=[];autosize=1;strokeColor=none;fillColor=none;" vertex="1" parent="1">
          <mxGeometry x="-493" y="235" width="80" height="30" as="geometry" />
        </mxCell>
        <mxCell id="cAMy2VFUhsjF8e3s1Db9-99" value="Position" style="text;html=1;align=center;verticalAlign=middle;resizable=0;points=[];autosize=1;strokeColor=none;fillColor=none;" vertex="1" parent="1">
          <mxGeometry x="-493" y="265" width="70" height="30" as="geometry" />
        </mxCell>
        <mxCell id="cAMy2VFUhsjF8e3s1Db9-100" value="HireDate" style="text;html=1;align=center;verticalAlign=middle;resizable=0;points=[];autosize=1;strokeColor=none;fillColor=none;" vertex="1" parent="1">
          <mxGeometry x="-493" y="295" width="70" height="30" as="geometry" />
        </mxCell>
        <mxCell id="cAMy2VFUhsjF8e3s1Db9-101" value="Contiene" style="rhombus;whiteSpace=wrap;html=1;" vertex="1" parent="1">
          <mxGeometry x="40" y="120" width="80" height="80" as="geometry" />
        </mxCell>
        <mxCell id="cAMy2VFUhsjF8e3s1Db9-105" value="" style="endArrow=none;html=1;rounded=0;" edge="1" parent="1">
          <mxGeometry width="50" height="50" relative="1" as="geometry">
            <mxPoint x="-39.93" y="175" as="sourcePoint" />
            <mxPoint x="-39.93" y="145" as="targetPoint" />
          </mxGeometry>
        </mxCell>
        <mxCell id="cAMy2VFUhsjF8e3s1Db9-106" value="Gestisce" style="rhombus;whiteSpace=wrap;html=1;" vertex="1" parent="1">
          <mxGeometry x="-380" y="120" width="80" height="80" as="geometry" />
        </mxCell>
        <mxCell id="cAMy2VFUhsjF8e3s1Db9-109" value="" style="endArrow=none;html=1;rounded=0;" edge="1" parent="1">
          <mxGeometry width="50" height="50" relative="1" as="geometry">
            <mxPoint x="-240" y="175" as="sourcePoint" />
            <mxPoint x="-240" y="145" as="targetPoint" />
          </mxGeometry>
        </mxCell>
        <mxCell id="cAMy2VFUhsjF8e3s1Db9-110" value="Propone" style="rhombus;whiteSpace=wrap;html=1;" vertex="1" parent="1">
          <mxGeometry x="262" y="310" width="80" height="80" as="geometry" />
        </mxCell>
        <mxCell id="cAMy2VFUhsjF8e3s1Db9-118" value="Contiene" style="rhombus;whiteSpace=wrap;html=1;" vertex="1" parent="1">
          <mxGeometry x="262" y="670" width="80" height="80" as="geometry" />
        </mxCell>
        <mxCell id="cAMy2VFUhsjF8e3s1Db9-132" value="Genera" style="rhombus;whiteSpace=wrap;html=1;" vertex="1" parent="1">
          <mxGeometry x="480" y="840" width="80" height="80" as="geometry" />
        </mxCell>
        <mxCell id="cAMy2VFUhsjF8e3s1Db9-145" value="Vende" style="rhombus;whiteSpace=wrap;html=1;" vertex="1" parent="1">
          <mxGeometry x="474.5" y="480" width="80" height="80" as="geometry" />
        </mxCell>
        <mxCell id="cAMy2VFUhsjF8e3s1Db9-150" value="Acquista" style="rhombus;whiteSpace=wrap;html=1;" vertex="1" parent="1">
          <mxGeometry x="701.25" y="490" width="80" height="80" as="geometry" />
        </mxCell>
        <mxCell id="cAMy2VFUhsjF8e3s1Db9-151" value="Scrive" style="rhombus;whiteSpace=wrap;html=1;" vertex="1" parent="1">
          <mxGeometry x="701.25" y="820" width="80" height="80" as="geometry" />
        </mxCell>
        <mxCell id="cAMy2VFUhsjF8e3s1Db9-168" value="" style="endArrow=none;html=1;rounded=0;" edge="1" parent="1">
          <mxGeometry width="50" height="50" relative="1" as="geometry">
            <mxPoint x="317" y="219.38" as="sourcePoint" />
            <mxPoint x="287" y="219.38" as="targetPoint" />
          </mxGeometry>
        </mxCell>
        <mxCell id="cAMy2VFUhsjF8e3s1Db9-170" value="" style="endArrow=none;html=1;rounded=0;" edge="1" parent="1">
          <mxGeometry width="50" height="50" relative="1" as="geometry">
            <mxPoint x="317" y="820" as="sourcePoint" />
            <mxPoint x="287" y="820" as="targetPoint" />
          </mxGeometry>
        </mxCell>
        <mxCell id="cAMy2VFUhsjF8e3s1Db9-171" value="" style="endArrow=none;html=1;rounded=0;" edge="1" parent="1">
          <mxGeometry width="50" height="50" relative="1" as="geometry">
            <mxPoint x="756.25" y="745" as="sourcePoint" />
            <mxPoint x="726.25" y="745" as="targetPoint" />
          </mxGeometry>
        </mxCell>
        <mxCell id="cAMy2VFUhsjF8e3s1Db9-174" value="" style="endArrow=none;html=1;rounded=0;" edge="1" parent="1">
          <mxGeometry width="50" height="50" relative="1" as="geometry">
            <mxPoint x="398.88" y="535" as="sourcePoint" />
            <mxPoint x="398.88" y="505" as="targetPoint" />
          </mxGeometry>
        </mxCell>
        <mxCell id="cAMy2VFUhsjF8e3s1Db9-175" value="" style="endArrow=none;html=1;rounded=0;" edge="1" parent="1">
          <mxGeometry width="50" height="50" relative="1" as="geometry">
            <mxPoint x="756.25" y="629.38" as="sourcePoint" />
            <mxPoint x="726.25" y="629.38" as="targetPoint" />
          </mxGeometry>
        </mxCell>
        <mxCell id="cAMy2VFUhsjF8e3s1Db9-176" value="" style="endArrow=none;html=1;rounded=0;" edge="1" parent="1">
          <mxGeometry width="50" height="50" relative="1" as="geometry">
            <mxPoint x="391.46999999999997" y="895" as="sourcePoint" />
            <mxPoint x="391.46999999999997" y="865" as="targetPoint" />
          </mxGeometry>
        </mxCell>
      </root>
    </mxGraphModel>
  </diagram>
</mxfile>
